<svg width="222" height="6" viewBox="0 0 222 6" fill="none" xmlns="http://www.w3.org/2000/svg">
<path fill-rule="evenodd" clip-rule="evenodd" d="M5.30327 3.29202C9.99767 3.54079 22.3228 3.37627 55.7808 2.9183C108.026 2.20121 149.496 1.94346 161.027 2.28265C161.943 2.31687 88.7139 3.73795 81.1894 3.59409C69.459 3.35306 13.4729 4.52175 2.21299 5.16279C-0.987913 5.33663 0.219639 5.76344 2.30855 5.82811C5.57081 5.9391 14.321 5.79515 38.3127 5.41224C55.1842 5.14942 189.419 3.54975 204.099 3.98574C212.34 4.23022 217.349 4.49026 219.635 4.37742C221.55 4.2859 221.576 4.09503 219.91 3.59557C218.79 3.26273 220.045 3.038 220.844 2.93105C222.071 2.75435 221.549 2.22227 219.998 1.81636C217.902 1.25969 214.299 1.3283 216.024 1.89041C216.397 2.01194 216.488 2.3281 215.171 2.28387C211.337 2.1495 184.237 1.24447 176.885 1.12985C98.3819 -0.134002 21.8273 2.74855 5.60479 2.39865C-0.146268 2.26059 2.49808 3.14259 5.30327 3.29202Z" fill="#FFD200"/>
</svg>
